<?xml version="1.0" encoding="utf-8"?>
<!-- Generated by song-zhaoli@outlook.com -->
<!DOCTYPE svg PUBLIC "-//W3C//DTD SVG 1.1//EN" "http://www.w3.org/Graphics/SVG/1.1/DTD/svg11.dtd">
<svg version="1.1" xmlns="http://www.w3.org/2000/svg" xmlns:xlink="http://www.w3.org/1999/xlink" width="400" height="400" viewBox="0 0 400 400">
    <g>
        <path d="M0 0 L0 90 A310 310 0 0 0 80 300 L80 220 A230 230 0 0 1 200 15 A310 310 0 0 0 90 0 L0 0 Z
            M90 310 L90 220 A220 220 0 0 1 310 0 L400 0 L400 90 A220 220 0 0 1 180 310 L90 310 Z
            M400 400 L310 400 A310 310 0 0 1 100 320 L180 320 A230 230 0 0 0 385 200 A310 310 0 0 1 400 310 L400 400Z" fill="#fafafa" />
    </g>
</svg>
